<?xml version="1.0" encoding="utf-8"?>
<!-- Generator: Adobe Illustrator 28.4.1, SVG Export Plug-In . SVG Version: 6.00 Build 0)  -->
<svg version="1.1" id="Layer_1" xmlns="http://www.w3.org/2000/svg" xmlns:xlink="http://www.w3.org/1999/xlink" x="0px" y="0px"
	 viewBox="0 0 800 800" style="enable-background:new 0 0 800 800;" xml:space="preserve">
<style type="text/css">
	.st0{fill:#FF0000;stroke:#000000;stroke-miterlimit:10;}
	.st1{fill:none;}
	.st2{fill:#FFFFFF;}
	.st3{font-family:'Rockwell-Regular';}
	.st4{font-size:81.7684px;}
</style>
<path class="st0" d="M445.3,85.5c-28,0.1-55.9,2.9-82.6,7.4C227.1,116,150.8,176.5,109.5,261.4c48.8-3.8,96.9-7.9,143.7-7.6
	c37.7,0.2,74.5,3.3,110.2,11.5c23.7,5.5,38.5,26,43.1,49.6c4.6,23.6,1.3,51.4-7.9,80.6l-0.4,1.4l-0.7,1.3
	c-12.1,21.3-37.9,38.3-70.8,56.2c-32.9,18-73,35.5-112.9,50.7c-40,15.2-79.7,28.1-111.8,36.6c-11.3,3-21.6,5.4-30.8,7.3
	c3.6,48.6,10.3,99,18.8,150c218.9-59.8,427.3-124.8,630.5-192.6c40.5-69.5,46.8-135.1,26.5-198c-35-108.8-95.2-167.3-164.4-197.1
	C539.2,92.6,492,85.3,445.3,85.5L445.3,85.5z M188.7,284.1c-14.2,0.8-28.5,1.8-43,2.9L78,518.7c5.3-1.2,10.8-2.6,16.8-4.2
	c6.3-1.7,12.9-3.5,19.8-5.6C130.2,460.4,182.2,303.7,188.7,284.1L188.7,284.1z M115.7,289.2c-17,1.3-34.1,2.6-51.4,3.7
	c-0.5,0.7-1.1,1.5-2.1,3.5c-2.5,5.4-5.3,14.7-7.7,26.1c-4.8,22.8-8.4,54.3-10.5,85.7c-2.1,31.5-2.7,63.2-1.9,86.8
	c0.4,11.8,1.2,21.7,2.3,28.1c0.1,0.5,0.1,0.5,0.2,0.9c0.7,0,1.6-0.1,2.4-0.1L115.7,289.2L115.7,289.2z M335.3,290
	c-24.4,0-44.8,19.7-44.8,44c0,24.3,20.4,44,44.8,44c24.4,0,44.8-19.7,44.8-44C380.1,309.7,359.7,290,335.3,290z M335.3,318.1
	c9.6,0,16.7,7.1,16.7,15.9c0,8.7-7.1,15.9-16.7,15.9c-9.6,0-16.7-7.1-16.7-15.9S325.7,318.1,335.3,318.1z M695,544.5
	c-193.4,64-392,125.6-600.2,182.3c0.6,3.6,1.3,7.2,1.9,10.9c230.6-41.6,400-107.8,580.2-170.6C683.4,559.5,689.3,552,695,544.5
	L695,544.5z"/>
<rect x="120" y="594.3" class="st1" width="2" height="0"/>
<text transform="matrix(0.9598 -0.2806 0.2806 0.9598 169.2866 614.7188)" class="st2 st3 st4">Мото-Дейли</text>
</svg>
